<svg 
          width="18" 
          height="12" fill="none" 
          xmlns="http://www.w3.org/2000/svg">
          <path d="M 17.856829179856785 3.2914284978594095 C 12.873920130111769 -1.0979463713509698 5.1240729192554975 -1.0963392938886374 0.1431323974770913 3.2914284978594095 C -0.04418020541250539 3.456428493772234 -0.047836474134335005 3.7358035913535526 0.13328863111560696 3.9069643020629883 L 1.0962891891226898 4.816875049046107 C 1.2689767841802317 4.98026790363448 1.546851986633484 4.983750177281243 1.7262895925271564 4.827053751264299 C 5.830291889357695 1.2463396617344444 12.169108153786556 1.245535714285714 16.2739541667676 4.827053751264299 C 16.45339177266127 4.983750177281243 16.731267618845052 4.980000053133283 16.903955213902595 4.816875049046107 L 17.866955490277572 3.9069643020629883 C 18.047799338929277 3.7358035913535526 18.044141782746383 3.456428493772234 17.856829179856785 3.2914284978594095 Z M 8.99998111723773 8.571428571428571 C 8.005761841256241 8.571428571428571 7.199980087268879 9.338839326586042 7.199980087268879 10.285714285714285 C 7.199980087268879 11.232589244842528 8.005761841256241 12 8.99998111723773 12 C 9.99420039321922 12 10.799982147206581 11.232589244842528 10.799982147206581 10.285714285714285 C 10.799982147206581 9.338839326586042 9.99420039321922 8.571428571428571 8.99998111723773 8.571428571428571 Z M 14.700077648207273 6.33241081237793 C 11.45838823321623 3.6021429470607216 6.53791718268424 3.6050893919808527 3.2998841571145006 6.33241081237793 C 3.1058215433887733 6.495803666966302 3.0996340457491183 6.779464219297681 3.283852906524414 6.952499934605189 L 4.252478314864148 7.862946101597377 C 4.421228411423728 8.021517532212393 4.692916156470484 8.03223230583327 4.872635005551341 7.884375163487025 C 7.233730020750057 5.9405358859470905 10.771575606294025 5.944821493966239 13.127045704104827 7.884375163487025 C 13.306764553185685 8.03223230583327 13.578452727386129 8.02178538271359 13.747202823945708 7.862946101597377 L 14.71582758855491 6.952499934605189 C 14.900327692517392 6.779464219297681 14.893859005334763 6.495535816465106 14.700077648207273 6.33241081237793 Z" fill="rgb(0,0,0)"/>
        </svg>