<svg 
          width="23.666385650634766" 
          height="21.835397720336914" fill="none" 
          xmlns="http://www.w3.org/2000/svg">
          <path d="M 0.9828145819707839 21.835397720336914 L 0 16.04992247931725 L 14.942042592129432 9.197464806531993 L 18.1689050967807 3.395240931546184 C 18.06469885579127 2.8860871065216545 18.101089668414865 2.3575869342780633 18.274065205450487 1.8681210043382261 C 18.44704074248611 1.378655074398389 18.749872044990585 0.9472668831769954 19.149095590058508 0.6216153609219625 C 19.54831913512643 0.29596383866692955 20.028407010749323 0.08872370336759065 20.53632450022117 0.022776839262930778 C 21.044241989693017 -0.04317002484172909 21.560226847343763 0.03474890829558941 22.02727862411289 0.24792518985013368 C 22.494330400882014 0.46110147140467794 22.894259856981684 0.8012363581944368 23.182919422061076 1.230764614643212 C 23.471578987140468 1.6602928710919873 23.63773027444191 2.1624940526293925 23.662999888257502 2.681896847939211 C 23.688269502073094 3.2012996432490293 23.571675213511067 3.71768675805484 23.32611407470769 4.174022467049492 C 23.08055293590431 4.630358176044145 22.715570730761996 5.008886571478999 22.271485949367737 5.267784122975721 L 16.9632591929529 13.602485920457383 L 0.9828145819707839 21.835397720336914 Z" fill="rgb(160.00000566244125,97.00000181794167,106.00000128149986)"/>
        </svg>