<svg 
          width="16" 
          height="14" fill="none" 
          xmlns="http://www.w3.org/2000/svg">
          <path d="M 5.1891891891891895 7.875 L 3.891891891891892 7.875 C 3.6529729688489763 7.875 3.4594594594594597 8.070781245827675 3.4594594594594597 8.3125 L 3.4594594594594597 13.5625 C 3.4594594594594597 13.804218754172325 3.6529729688489763 14 3.891891891891892 14 L 5.1891891891891895 14 C 5.428108112232105 14 5.621621621621622 13.804218754172325 5.621621621621622 13.5625 L 5.621621621621622 8.3125 C 5.621621621621622 8.070781245827675 5.428108112232105 7.875 5.1891891891891895 7.875 Z M 1.7297297297297298 10.5 L 0.43243243243243246 10.5 C 0.19351350938951647 10.5 0 10.695781245827675 0 10.9375 L 0 13.5625 C 0 13.804218754172325 0.19351350938951647 14 0.43243243243243246 14 L 1.7297297297297298 14 C 1.968648652772646 14 2.1621621621621623 13.804218754172325 2.1621621621621623 13.5625 L 2.1621621621621623 10.9375 C 2.1621621621621623 10.695781245827675 1.968648652772646 10.5 1.7297297297297298 10.5 Z M 8.64864864864865 5.25 L 7.351351351351352 5.25 C 7.112432428308436 5.25 6.918918918918919 5.445781245827675 6.918918918918919 5.6875 L 6.918918918918919 13.5625 C 6.918918918918919 13.804218754172325 7.112432428308436 14 7.351351351351352 14 L 8.64864864864865 14 C 8.887567571691566 14 9.08108108108108 13.804218754172325 9.08108108108108 13.5625 L 9.08108108108108 5.6875 C 9.08108108108108 5.445781245827675 8.887567571691566 5.25 8.64864864864865 5.25 Z M 12.108108108108109 2.625 L 10.81081081081081 2.625 C 10.571891887767894 2.625 10.378378378378379 2.820781245827675 10.378378378378379 3.0625 L 10.378378378378379 13.5625 C 10.378378378378379 13.804218754172325 10.571891887767894 14 10.81081081081081 14 L 12.108108108108109 14 C 12.347027031151026 14 12.54054054054054 13.804218754172325 12.54054054054054 13.5625 L 12.54054054054054 3.0625 C 12.54054054054054 2.820781245827675 12.347027031151026 2.625 12.108108108108109 2.625 Z M 15.567567567567568 0 L 14.27027027027027 0 C 14.031351347227353 0 13.837837837837839 0.19578124582767487 13.837837837837839 0.4375 L 13.837837837837839 13.5625 C 13.837837837837839 13.804218754172325 14.031351347227353 14 14.27027027027027 14 L 15.567567567567568 14 C 15.806486490610485 14 16 13.804218754172325 16 13.5625 L 16 0.4375 C 16 0.19578124582767487 15.806486490610485 0 15.567567567567568 0 Z" fill="rgb(0,0,0)"/>
        </svg>