<svg 
          width="28.617870330810547" 
          height="50.946983337402344" fill="none" 
          xmlns="http://www.w3.org/2000/svg">
          <path d="M 0.8017524299471971 42.56835452954912 C 1.0400916526256594 42.57948123214725 1.2760403755948837 42.515931504317564 1.4776272320687096 42.386315445742895 C 1.6792140885425355 42.256699387168226 1.8367120184000363 42.06726656220166 1.928754252091709 41.84371161451831 C 2.020796485783382 41.620156666834966 2.042942607954194 41.37328503423096 1.9922041244560609 41.136516024769506 C 1.9414656409579276 40.89974701530805 1.8202948798982352 40.68453718138582 1.6450971554095641 40.5200505190101 C 1.6157555950421019 40.4016095770043 1.594693941247232 40.316554373117775 1.5653523808797698 40.19811343111198 C 1.7934417949844073 39.60965087307272 2.189376402589418 39.10378082627396 2.7023984672058754 38.745334143471005 C 3.215420531822333 38.38688746066805 3.8221562891795786 38.192205637100336 4.444832601533739 38.18624119247189 C 5.0675089138879 38.18027674784344 5.677762459479091 38.36330124145894 6.197350312231774 38.711856838553466 C 6.716938164984457 39.06041243564799 7.1221902411674884 39.55860876756417 7.361167998979269 40.14259739952243 C 8.740250323710336 43.42092879688329 10.525109066295913 46.81477542401145 9.63746165419183 50.42563969087494 C 15.50062089408371 37.80561651256753 13.506709760689251 22.107487898480418 4.841767769602426 11.315023384590033 C 2.4466706841860852 9.975080281435211 0.5053859407209099 7.594434605812856 0 4.830187949194881 C 1.1853527040181329 5.238086902391925 2.6632676368106716 4.258876162438206 1.772016556232557 2.9908126645157083 C 1.385703702758953 2.506167360975074 0.9956524290711734 2.025343182619781 0.6093782351423914 1.540668442020303 C 5.112127518498176 -3.3294940193579965 10.477074485877576 4.32467590381904 5.520846515093019 10.897904549615685 C 7.142170085149949 12.962356755899394 8.54654312322995 15.193276582661088 9.711073727303507 17.554318658693752 C 9.442143786508629 15.047229937271606 9.763100491184552 12.511123371915131 10.647568683600653 10.154596589803777 C 11.54396927697435 7.958407189908287 13.224148644826945 6.108779542981289 14.703741332761302 4.210169098011907 C 16.502712997483023 1.8967913517012773 20.205249149580204 2.9640530913737457 20.447330708335375 5.899764884303306 C 18.787102660094035 6.453957832163084 18.57140328458756 8.889534307251484 20.470505243501908 9.222881472083857 C 19.973089964187547 14.684238016625233 16.45993104757367 19.703192294835503 11.62125297029227 22.098350011583577 C 13.408124005530665 27.19018327342655 14.105871702434213 32.61032356876456 13.667983100305552 37.99755455795753 C 14.522070188423239 31.70150557015043 21.17670018531689 30.173623338828477 25.82797030286615 27.671233317850557 C 26.124006957455556 27.478424052487227 26.468892998996868 27.377276746231665 26.820563752263624 27.380138469724407 C 27.17223450553038 27.38300019321715 27.51548323664732 27.489740944559706 27.808439739031776 27.687343147945043 C 28.101396241416232 27.88494535133038 28.33139306448307 28.16486355255049 28.470378370302505 28.49295442835781 C 28.60936367612194 28.82104530416513 28.651323390876158 29.183124481039933 28.591145413613095 29.5350228803557 C 27.949172536897866 29.80012964021849 27.334726561383395 30.12934637630551 26.756838694579226 30.51782232919308 C 26.486054535288236 30.70271988787623 26.278192230770145 30.96814577664847 26.161770096079106 31.277719221853214 C 26.045347961388067 31.58729266705796 26.026062367200716 31.925855708317386 26.106536471127487 32.2470039805122 C 26.18701057505426 32.56815225270701 26.363315778410108 32.85616650287778 26.61128531637042 33.071559782312406 C 26.859254854330732 33.286953061747035 27.16675218281021 33.419185324305396 27.491622811284373 33.450130808225474 C 25.147080432562724 39.34326186611828 19.085484014157352 43.30050494730112 12.859881751903062 43.27822510967297 C 12.2616056012978 45.91857473366003 11.394759558101349 48.488636926898145 10.273316648341279 50.946983337402344 L 1.0333012206696464 50.946983337402344 C 1.0001595244628616 50.84271422405047 0.9703590787535351 50.735064595900965 0.9405441117206448 50.63079548254909 C 1.7958226202097376 50.685400583377984 2.654485892779044 50.633459000269085 3.497330232434847 50.47610518093549 C 1.234522961352976 47.75520453498086 -0.515191298897114 46.36686706304467 0.8017524299471971 42.56835452954912 Z" fill="rgb(242.00000077486038,242.00000077486038,242.00000077486038)"/>
        </svg>