<svg 
          width="18" 
          height="9" fill="none" 
          xmlns="http://www.w3.org/2000/svg">
          <path d="M 15.3 1.8 L 15.3 3.6 L 16.2 3.6 L 16.2 5.4 L 15.3 5.4 L 15.3 7.2 L 1.8 7.2 L 1.8 1.8 L 15.3 1.8 Z M 15.75 0 L 1.35 0 C 0.6044062435626985 0 0 0.6044062435626985 0 1.35 L 0 7.65 C 0 8.395593756437302 0.6044062435626985 9 1.35 9 L 15.75 9 C 16.4955937564373 9 17.1 8.395593756437302 17.1 7.65 L 17.1 7.2 L 17.325 7.2 C 17.69779687821865 7.2 18 6.897796878218651 18 6.525 L 18 2.475 C 18 2.1022031217813493 17.69779687821865 1.8 17.325 1.8 L 17.1 1.8 L 17.1 1.35 C 17.1 0.6044062435626985 16.4955937564373 0 15.75 0 Z M 11.700000000000001 2.7 L 2.7 2.7 L 2.7 6.3 L 11.700000000000001 6.3 L 11.700000000000001 2.7 Z" fill="rgb(0,0,0)"/>
        </svg>